<svg xmlns="http://www.w3.org/2000/svg" xml:space="preserve" width="378.028" height="378.028" fill-rule="evenodd" stroke-linejoin="round" stroke-width="28.222" preserveAspectRatio="xMidYMid" version="1.2" viewBox="1002 9852 10002 10002"><g class="Page"><g class="com.sun.star.drawing.CustomShape"><path fill="none" d="M1002 9852h10002v10002H1002z" class="BoundingBox"/><path fill="#0274B2" d="M11003 14853c0 877-231 1740-670 2500s-1070 1391-1830 1830-1623 670-2500 670c-878 0-1741-231-2501-670s-1391-1070-1830-1830-670-1623-670-2500c0-878 231-1741 670-2501s1070-1391 1830-1830 1623-670 2500-670c878 0 1741 231 2501 670s1391 1070 1830 1830 670 1623 670 2500z"/></g><g class="com.sun.star.drawing.CustomShape"><path fill="none" d="M2056 10938h7892v7829H2056z" class="BoundingBox"/><path fill="#FFD550" d="m2056 14852 1602 565v-1131zM3211 17619l1537-725-806-799zM6001 18766l570-1590H5432zM8792 17619l-731-1524-806 799zM9947 14852l-1602-566v1131zM8792 12084l-1537 725 806 799zM6002 10938l-570 1589h1139zM3211 12084l731 1524 806-799zM7975 14852c0 344-91 681-264 979-173 297-423 544-722 716-300 172-641 262-987 262s-687-90-986-262c-300-172-550-419-723-716-173-298-264-635-264-979s91-681 264-978c173-298 423-545 722-717 300-172 641-262 987-262s687 90 986 262c300 172 550 419 723 717 173 297 264 634 264 978"/></g></g></svg>