<svg xmlns="http://www.w3.org/2000/svg" xml:space="preserve" width="378.028" height="378.028" fill-rule="evenodd" stroke-linejoin="round" stroke-width="28.222" preserveAspectRatio="xMidYMid" version="1.2" viewBox="1001 9851 10002 10002"><g class="Page"><g class="com.sun.star.drawing.CustomShape"><path fill="none" d="M1001 9851h10002v10002H1001z" class="BoundingBox"/><path fill="#051520" d="M11002 14852c0 877-231 1740-670 2500s-1070 1391-1830 1830-1623 670-2500 670c-878 0-1741-231-2501-670s-1391-1070-1830-1830-670-1623-670-2500c0-878 231-1741 670-2501s1070-1391 1830-1830 1623-670 2500-670c878 0 1741 231 2501 670s1391 1070 1830 1830 670 1623 670 2500z"/></g><g class="Group"><g class="com.sun.star.drawing.CustomShape"><path fill="none" d="M1189 14434h9621v2779H1189z" class="BoundingBox"/><path fill="#BDBCBC" d="M2578 14434c-244 0-483 64-695 186-211 122-386 297-508 509-122 211-186 450-186 694s64 483 186 695c122 211 297 386 509 508 211 122 450 186 694 186h6841c244 0 483-64 695-186 211-122 386-297 508-508 122-212 186-451 186-695s-64-483-186-694c-122-212-297-387-508-509-212-122-451-186-695-186z"/></g><g class="com.sun.star.drawing.CustomShape"><path fill="none" d="M1753 13766h3964v2781H1753z" class="BoundingBox"/><path fill="#BDBCBC" d="M5716 15156c0 244-92 484-265 695-174 211-425 387-726 509s-643 186-990 186c-348 0-690-64-991-186s-552-298-726-509c-173-211-265-451-265-695s92-484 265-695c174-211 425-387 726-509s643-186 990-186c348 0 690 64 991 186s552 298 726 509c173 211 265 451 265 695"/></g><g class="com.sun.star.drawing.CustomShape"><path fill="none" d="M6396 13211h3962v2779H6396z" class="BoundingBox"/><path fill="#BDBCBC" d="M10357 14600c0 244-92 483-265 695-174 211-424 386-725 508s-643 186-990 186c-348 0-690-64-991-186s-551-297-725-508c-173-212-265-451-265-695s92-483 265-694c174-212 424-387 725-509s643-186 990-186c348 0 690 64 991 186s551 297 725 508c173 212 265 451 265 695"/></g><g class="com.sun.star.drawing.CustomShape"><path fill="none" d="M4017 12211h3963v2779H4017z" class="BoundingBox"/><path fill="#BDBCBC" d="M7978 13600c0 244-92 483-265 695-174 211-424 386-725 508s-643 186-990 186c-348 0-690-64-991-186s-551-297-725-508c-173-212-265-451-265-695s92-483 265-694c174-212 424-387 725-509s643-186 990-186c348 0 690 64 991 186s551 297 725 508c173 212 265 451 265 695"/></g></g></g></svg>