<svg xmlns="http://www.w3.org/2000/svg" xml:space="preserve" width="378.028" height="378.028" fill-rule="evenodd" stroke-linejoin="round" stroke-width="28.222" preserveAspectRatio="xMidYMid" version="1.2" viewBox="1002 9852 10002 10002"><g class="Page"><g class="com.sun.star.drawing.CustomShape"><path fill="none" d="M1002 9852h10002v10002H1002z" class="BoundingBox"/><path fill="#79909C" d="M11003 14853c0 877-231 1740-670 2500s-1070 1391-1830 1830-1623 670-2500 670c-878 0-1741-231-2501-670s-1391-1070-1830-1830-670-1623-670-2500c0-878 231-1741 670-2501s1070-1391 1830-1830 1623-670 2500-670c878 0 1741 231 2501 670s1391 1070 1830 1830 670 1623 670 2500z"/></g><g class="Group"><g class="com.sun.star.drawing.CustomShape"><path fill="none" d="M1342 13712h9281v2390H1342z" class="BoundingBox"/><path fill="#BDBCBC" d="M2537 13712c-209 0-415 55-597 160-181 105-332 256-437 437-105 182-160 388-160 598v-1 1c0 209 55 415 160 597 105 181 256 332 437 437 182 105 388 160 598 160h6890c209 0 415-55 597-160 181-105 332-256 437-437 105-182 160-388 160-597v-1 1c0-210-55-416-160-598-105-181-256-332-437-437-182-105-388-160-597-160z"/></g><g class="com.sun.star.drawing.CustomShape"><path fill="none" d="M1888 13138h3824v2392H1888z" class="BoundingBox"/><path fill="#BDBCBC" d="M5711 14334c0 209-88 416-256 597-168 182-409 333-700 438-290 105-620 160-955 160-336 0-666-55-956-160-291-105-532-256-700-438-168-181-256-388-256-597 0-210 88-417 256-598 168-182 409-333 700-438 290-105 620-160 955-160 336 0 666 55 956 160 291 105 532 256 700 438 168 181 256 388 256 597z"/></g><g class="com.sun.star.drawing.CustomShape"><path fill="none" d="M6365 12661h3823v2390H6365z" class="BoundingBox"/><path fill="#BDBCBC" d="M10187 13856c0 209-88 415-256 597-168 181-409 332-699 437-291 105-620 160-955 160-336 0-665-55-956-160-290-105-531-256-699-437-168-182-256-388-256-597 0-210 88-416 256-598 168-181 409-332 699-437 291-105 620-160 955-160 336 0 665 55 956 160 290 105 531 256 699 437 168 182 256 388 256 597z"/></g><g class="com.sun.star.drawing.CustomShape"><path fill="none" d="M4073 11800h3821v2390H4073z" class="BoundingBox"/><path fill="#BDBCBC" d="M7892 12995c0 209-88 415-256 597-167 181-408 332-699 437-290 105-619 160-954 160-336 0-665-55-955-160-291-105-532-256-699-437-168-182-256-388-256-597 0-210 88-416 256-598 167-181 408-332 699-437 290-105 619-160 954-160 336 0 665 55 955 160 291 105 532 256 699 437 168 182 256 388 256 597z"/></g></g><g class="Group"><g class="com.sun.star.drawing.CustomShape"><path fill="none" d="M3471 16299h702v702h-702z" class="BoundingBox"/><path fill="#66C7F9" d="M4172 16650c0 61-16 121-47 175-31 53-75 97-128 128-54 31-114 47-175 47-62 0-122-16-176-47-53-31-97-75-128-128-31-54-47-114-47-175 0-62 16-122 47-176 31-53 75-97 128-128 54-31 114-47 176-47 61 0 121 16 175 47 53 31 97 75 128 128 31 54 47 114 47 176"/></g><g class="com.sun.star.drawing.CustomShape"><path fill="none" d="M4572 16800h702v703h-702z" class="BoundingBox"/><path fill="#66C7F9" d="M5273 17151c0 61-16 121-47 175-31 53-75 97-128 128-54 31-114 47-175 47-62 0-122-16-176-47-53-31-97-75-128-128-31-54-47-114-47-175 0-62 16-122 47-176 31-53 75-97 128-128 54-31 114-47 176-47 61 0 121 16 175 47 53 31 97 75 128 128 31 54 47 114 47 176"/></g><g class="com.sun.star.drawing.CustomShape"><path fill="none" d="M5873 16401h702v702h-702z" class="BoundingBox"/><path fill="#66C7F9" d="M6574 16752c0 61-16 121-47 175-31 53-75 97-128 128-54 31-114 47-175 47-62 0-122-16-176-47-53-31-97-75-128-128-31-54-47-114-47-175 0-62 16-122 47-176 31-53 75-97 128-128 54-31 114-47 176-47 61 0 121 16 175 47 53 31 97 75 128 128 31 54 47 114 47 176"/></g><g class="com.sun.star.drawing.CustomShape"><path fill="none" d="M6874 17102h702v702h-702z" class="BoundingBox"/><path fill="#66C7F9" d="M7575 17453c0 61-16 121-47 175-31 53-75 97-128 128-54 31-114 47-175 47-62 0-122-16-176-47-53-31-97-75-128-128-31-54-47-114-47-175 0-62 16-122 47-176 31-53 75-97 128-128 54-31 114-47 176-47 61 0 121 16 175 47 53 31 97 75 128 128 31 54 47 114 47 176"/></g><g class="com.sun.star.drawing.CustomShape"><path fill="none" d="M7875 16403h702v703h-702z" class="BoundingBox"/><path fill="#66C7F9" d="M8576 16754c0 61-16 121-47 175-31 53-75 97-128 128-54 31-114 47-175 47-62 0-122-16-176-47-53-31-97-75-128-128-31-54-47-114-47-175 0-62 16-122 47-176 31-53 75-97 128-128 54-31 114-47 176-47 61 0 121 16 175 47 53 31 97 75 128 128 31 54 47 114 47 176"/></g></g></g></svg>