<svg xmlns="http://www.w3.org/2000/svg" xml:space="preserve" width="378.028" height="378.028" fill-rule="evenodd" stroke-linejoin="round" stroke-width="28.222" preserveAspectRatio="xMidYMid" version="1.2" viewBox="1002 9852 10002 10002"><g class="Page"><g class="com.sun.star.drawing.CustomShape"><path fill="none" d="M1002 9852h10002v10002H1002z" class="BoundingBox"/><path fill="#79909C" d="M11003 14853c0 877-231 1740-670 2500s-1070 1391-1830 1830-1623 670-2500 670c-878 0-1741-231-2501-670s-1391-1070-1830-1830-670-1623-670-2500c0-878 231-1741 670-2501s1070-1391 1830-1830 1623-670 2500-670c878 0 1741 231 2501 670s1391 1070 1830 1830 670 1623 670 2500z"/></g><g class="Group"><g class="com.sun.star.drawing.CustomShape"><path fill="none" d="M1342 13712h9281v2390H1342z" class="BoundingBox"/><path fill="#BDBCBC" d="M2537 13712c-209 0-415 55-597 160-181 105-332 256-437 437-105 182-160 388-160 598v-1 1c0 209 55 415 160 597 105 181 256 332 437 437 182 105 388 160 598 160h6890c209 0 415-55 597-160 181-105 332-256 437-437 105-182 160-388 160-597v-1 1c0-210-55-416-160-598-105-181-256-332-437-437-182-105-388-160-597-160z"/></g><g class="com.sun.star.drawing.CustomShape"><path fill="none" d="M1888 13138h3824v2392H1888z" class="BoundingBox"/><path fill="#BDBCBC" d="M5711 14334c0 209-88 416-256 597-168 182-409 333-700 438-290 105-620 160-955 160-336 0-666-55-956-160-291-105-532-256-700-438-168-181-256-388-256-597 0-210 88-417 256-598 168-182 409-333 700-438 290-105 620-160 955-160 336 0 666 55 956 160 291 105 532 256 700 438 168 181 256 388 256 597z"/></g><g class="com.sun.star.drawing.CustomShape"><path fill="none" d="M6365 12661h3823v2390H6365z" class="BoundingBox"/><path fill="#BDBCBC" d="M10187 13856c0 209-88 415-256 597-168 181-409 332-699 437-291 105-620 160-955 160-336 0-665-55-956-160-290-105-531-256-699-437-168-182-256-388-256-597 0-210 88-416 256-598 168-181 409-332 699-437 291-105 620-160 955-160 336 0 665 55 956 160 290 105 531 256 699 437 168 182 256 388 256 597z"/></g><g class="com.sun.star.drawing.CustomShape"><path fill="none" d="M4073 11800h3821v2390H4073z" class="BoundingBox"/><path fill="#BDBCBC" d="M7892 12995c0 209-88 415-256 597-167 181-408 332-699 437-290 105-619 160-954 160-336 0-665-55-955-160-291-105-532-256-699-437-168-182-256-388-256-597 0-210 88-416 256-598 167-181 408-332 699-437 290-105 619-160 954-160 336 0 665 55 955 160 291 105 532 256 699 437 168 182 256 388 256 597z"/></g></g><g class="Group"><g class="com.sun.star.drawing.ClosedBezierShape"><path fill="none" d="M5962 11295h4020v3751H5962z" class="BoundingBox"/><path fill="#FFF" d="m7635 11653-1462 2655c-34 59-52 125-52 193 0 67 18 133 52 192 33 58 82 107 140 141 59 33 125 51 192 51h2932c68 0 134-18 192-51 59-34 107-83 141-141 33-59 51-125 51-192 0-68-18-134-51-193l-1463-2655-3-6c-34-58-83-107-141-141s-124-51-192-51c-67 0-133 17-192 51-58 34-107 83-140 141-1 2-3 4-4 6"/><path fill="none" stroke="#E01B24" stroke-linecap="round" stroke-width="318" d="m7635 11653-1462 2655h0c-34 59-52 125-52 193 0 67 18 133 52 192 33 58 82 107 140 141 59 33 125 51 192 51h2932c68 0 134-18 192-51 59-34 107-83 141-141 33-59 51-125 51-192 0-68-18-134-51-193h0l-1463-2655h0l-3-6c-34-58-83-107-141-141s-124-51-192-51c-67 0-133 17-192 51-58 34-107 83-140 141z"/></g><g fill="none" class="Graphic"><path d="M6827 12492h2289v2292H6827z" class="BoundingBox"/><path stroke="#000" stroke-linecap="round" stroke-width="143" d="m7971 14114-286 286M7971 14114l286 286M7971 14114v-476M7971 14114v382M7971 13161l-286-286M7971 13161l286-286M7971 13161v477M7971 13161v-382M7971 13638l-412-239M7971 13638l412 238M7971 13638l-412 238M7971 13638l412-239M8383 13876l105 391M8383 13876l390-105M8383 13876l330 191M7559 13399l-390 105M7559 13399l-105-391M7559 13399l-330-191M8383 13399l390 105M8383 13399l105-391M8383 13399l330-191M7559 13876l-105 391M7559 13876l-390-105M7559 13876l-330 191"/></g></g><g class="Group"><g class="com.sun.star.drawing.CustomShape"><path fill="none" d="M3471 16299h702v702h-702z" class="BoundingBox"/><path fill="#66C7F9" d="M4172 16650c0 61-16 121-47 175-31 53-75 97-128 128-54 31-114 47-175 47-62 0-122-16-176-47-53-31-97-75-128-128-31-54-47-114-47-175 0-62 16-122 47-176 31-53 75-97 128-128 54-31 114-47 176-47 61 0 121 16 175 47 53 31 97 75 128 128 31 54 47 114 47 176"/></g><g class="com.sun.star.drawing.CustomShape"><path fill="none" d="M4572 16800h702v703h-702z" class="BoundingBox"/><path fill="#66C7F9" d="M5273 17151c0 61-16 121-47 175-31 53-75 97-128 128-54 31-114 47-175 47-62 0-122-16-176-47-53-31-97-75-128-128-31-54-47-114-47-175 0-62 16-122 47-176 31-53 75-97 128-128 54-31 114-47 176-47 61 0 121 16 175 47 53 31 97 75 128 128 31 54 47 114 47 176"/></g><g class="com.sun.star.drawing.CustomShape"><path fill="none" d="M5873 16401h702v702h-702z" class="BoundingBox"/><path fill="#66C7F9" d="M6574 16752c0 61-16 121-47 175-31 53-75 97-128 128-54 31-114 47-175 47-62 0-122-16-176-47-53-31-97-75-128-128-31-54-47-114-47-175 0-62 16-122 47-176 31-53 75-97 128-128 54-31 114-47 176-47 61 0 121 16 175 47 53 31 97 75 128 128 31 54 47 114 47 176"/></g><g class="com.sun.star.drawing.CustomShape"><path fill="none" d="M6874 17102h702v702h-702z" class="BoundingBox"/><path fill="#66C7F9" d="M7575 17453c0 61-16 121-47 175-31 53-75 97-128 128-54 31-114 47-175 47-62 0-122-16-176-47-53-31-97-75-128-128-31-54-47-114-47-175 0-62 16-122 47-176 31-53 75-97 128-128 54-31 114-47 176-47 61 0 121 16 175 47 53 31 97 75 128 128 31 54 47 114 47 176"/></g><g class="com.sun.star.drawing.CustomShape"><path fill="none" d="M7875 16403h702v703h-702z" class="BoundingBox"/><path fill="#66C7F9" d="M8576 16754c0 61-16 121-47 175-31 53-75 97-128 128-54 31-114 47-175 47-62 0-122-16-176-47-53-31-97-75-128-128-31-54-47-114-47-175 0-62 16-122 47-176 31-53 75-97 128-128 54-31 114-47 176-47 61 0 121 16 175 47 53 31 97 75 128 128 31 54 47 114 47 176"/></g></g></g></svg>