<svg xmlns="http://www.w3.org/2000/svg" xml:space="preserve" width="378.028" height="378.028" fill-rule="evenodd" stroke-linejoin="round" stroke-width="28.222" preserveAspectRatio="xMidYMid" version="1.2" viewBox="1002 9852 10002 10002"><g class="Page"><g class="com.sun.star.drawing.CustomShape"><path fill="none" d="M1002 9852h10002v10002H1002z" class="BoundingBox"/><path fill="#79909C" d="M11003 14853c0 877-231 1740-670 2500s-1070 1391-1830 1830-1623 670-2500 670c-878 0-1741-231-2501-670s-1391-1070-1830-1830-670-1623-670-2500c0-878 231-1741 670-2501s1070-1391 1830-1830 1623-670 2500-670c878 0 1741 231 2501 670s1391 1070 1830 1830 670 1623 670 2500z"/></g><g class="Group"><g class="com.sun.star.drawing.CustomShape"><path fill="none" d="M1342 13712h9281v2390H1342z" class="BoundingBox"/><path fill="#BDBCBC" d="M2537 13712c-209 0-415 55-597 160-181 105-332 256-437 437-105 182-160 388-160 598v-1 1c0 209 55 415 160 597 105 181 256 332 437 437 182 105 388 160 598 160h6890c209 0 415-55 597-160 181-105 332-256 437-437 105-182 160-388 160-597v-1 1c0-210-55-416-160-598-105-181-256-332-437-437-182-105-388-160-597-160z"/></g><g class="com.sun.star.drawing.CustomShape"><path fill="none" d="M1888 13138h3824v2392H1888z" class="BoundingBox"/><path fill="#BDBCBC" d="M5711 14334c0 209-88 416-256 597-168 182-409 333-700 438-290 105-620 160-955 160-336 0-666-55-956-160-291-105-532-256-700-438-168-181-256-388-256-597 0-210 88-417 256-598 168-182 409-333 700-438 290-105 620-160 955-160 336 0 666 55 956 160 291 105 532 256 700 438 168 181 256 388 256 597z"/></g><g class="com.sun.star.drawing.CustomShape"><path fill="none" d="M6365 12661h3823v2390H6365z" class="BoundingBox"/><path fill="#BDBCBC" d="M10187 13856c0 209-88 415-256 597-168 181-409 332-699 437-291 105-620 160-955 160-336 0-665-55-956-160-290-105-531-256-699-437-168-182-256-388-256-597 0-210 88-416 256-598 168-181 409-332 699-437 291-105 620-160 955-160 336 0 665 55 956 160 290 105 531 256 699 437 168 182 256 388 256 597z"/></g><g class="com.sun.star.drawing.CustomShape"><path fill="none" d="M4073 11800h3821v2390H4073z" class="BoundingBox"/><path fill="#BDBCBC" d="M7892 12995c0 209-88 415-256 597-167 181-408 332-699 437-290 105-619 160-954 160-336 0-665-55-955-160-291-105-532-256-699-437-168-182-256-388-256-597 0-210 88-416 256-598 167-181 408-332 699-437 290-105 619-160 954-160 336 0 665 55 955 160 291 105 532 256 699 437 168 182 256 388 256 597z"/></g></g><g class="Group"><g class="com.sun.star.drawing.LineShape"><path fill="none" d="M4150 16399h1v1h-1z" class="BoundingBox"/></g><g class="com.sun.star.drawing.CustomShape"><path fill="none" d="M3850 16399h3502v252H3850z" class="BoundingBox"/><path fill="#BDBCBC" d="M3975 16399c-22 0-43 6-62 17s-35 27-46 46-17 40-17 63v-1 1c0 22 6 43 17 62s27 35 46 46 40 17 62 17h3251c22 0 43-6 62-17s35-27 46-46 17-40 17-62v-1 1c0-23-6-44-17-63s-27-35-46-46-40-17-62-17z"/></g><g class="com.sun.star.drawing.CustomShape"><path fill="none" d="M7649 16399h2003v252H7649z" class="BoundingBox"/><path fill="#BDBCBC" d="M7775 16399c-22 0-43 6-62 17s-35 27-46 46-17 40-17 63v-1 1c0 22 6 43 17 62s27 35 46 46 40 17 62 17h1751c22 0 43-6 62-17s35-27 46-46 17-40 17-62v-1 1c0-23-6-44-17-63s-27-35-46-46-40-17-62-17z"/></g><g class="com.sun.star.drawing.CustomShape"><path fill="none" d="M2451 16400h1002v252H2451z" class="BoundingBox"/><path fill="#BDBCBC" d="M2576 16400h1c-23 0-44 6-63 17s-35 27-46 46-17 40-17 63v-1 1c0 22 6 43 17 62s27 35 46 46 40 17 63 17h750c22 0 43-6 62-17s35-27 46-46 17-40 17-62v-1 1c0-23-6-44-17-63s-27-35-46-46-40-17-62-17z"/></g><g class="com.sun.star.drawing.CustomShape"><path fill="none" d="M2351 16900h3502v252H2351z" class="BoundingBox"/><path fill="#BDBCBC" d="M2476 16900h1c-23 0-44 6-63 17s-35 27-46 46-17 40-17 63v-1 1c0 22 6 43 17 62s27 35 46 46 40 17 63 17h3250c22 0 43-6 62-17s35-27 46-46 17-40 17-62v-1 1c0-23-6-44-17-63s-27-35-46-46-40-17-62-17z"/></g><g class="com.sun.star.drawing.CustomShape"><path fill="none" d="M8352 16901h1002v252H8352z" class="BoundingBox"/><path fill="#BDBCBC" d="M8477 16901h1c-23 0-44 6-63 17s-35 27-46 46-17 40-17 63v-1 1c0 22 6 43 17 62s27 35 46 46 40 17 63 17h750c22 0 43-6 62-17s35-27 46-46 17-40 17-62v-1 1c0-23-6-44-17-63s-27-35-46-46-40-17-62-17z"/></g><g class="com.sun.star.drawing.CustomShape"><path fill="none" d="M6351 16900h1502v252H6351z" class="BoundingBox"/><path fill="#BDBCBC" d="M6476 16900h1c-23 0-44 6-63 17s-35 27-46 46-17 40-17 63v-1 1c0 22 6 43 17 62s27 35 46 46 40 17 63 17h1250c22 0 43-6 62-17s35-27 46-46 17-40 17-62v-1 1c0-23-6-44-17-63s-27-35-46-46-40-17-62-17z"/></g><g class="com.sun.star.drawing.LineShape"><path fill="none" d="M4651 17500h1v1h-1z" class="BoundingBox"/></g><g class="com.sun.star.drawing.CustomShape"><path fill="none" d="M4351 17500h3502v252H4351z" class="BoundingBox"/><path fill="#BDBCBC" d="M4476 17500c-22 0-43 6-62 17s-35 27-46 46-17 40-17 63v-1 1c0 22 6 43 17 62s27 35 46 46 40 17 62 17h3251c22 0 43-6 62-17s35-27 46-46 17-40 17-62v-1 1c0-23-6-44-17-63s-27-35-46-46-40-17-62-17z"/></g><g class="com.sun.star.drawing.CustomShape"><path fill="none" d="M8151 17500h1503v252H8151z" class="BoundingBox"/><path fill="#BDBCBC" d="M8276 17500h1c-23 0-44 6-63 17s-35 27-46 46-17 40-17 63v-1 1c0 22 6 43 17 62s27 35 46 46 40 17 63 17h1250c22 0 43-6 62-17s35-27 46-46 17-40 17-62v-1 1c0-23-6-44-17-63s-27-35-46-46-40-17-62-17z"/></g><g class="com.sun.star.drawing.CustomShape"><path fill="none" d="M2552 17501h1502v252H2552z" class="BoundingBox"/><path fill="#BDBCBC" d="M2677 17501h1c-23 0-44 6-63 17s-35 27-46 46-17 40-17 63v-1 1c0 22 6 43 17 62s27 35 46 46 40 17 63 17h1250c22 0 43-6 62-17s35-27 46-46 17-40 17-62v-1 1c0-23-6-44-17-63s-27-35-46-46-40-17-62-17z"/></g><g class="com.sun.star.drawing.CustomShape"><path fill="none" d="M7151 18100h2002v252H7151z" class="BoundingBox"/><path fill="#BDBCBC" d="M7276 18100h1c-23 0-44 6-63 17s-35 27-46 46-17 40-17 63v-1 1c0 22 6 43 17 62s27 35 46 46 40 17 63 17h1749c23 0 44-6 63-17s35-27 46-46 17-40 17-62v-1 1c0-23-6-44-17-63s-27-35-46-46-40-17-63-17z"/></g><g class="com.sun.star.drawing.CustomShape"><path fill="none" d="M3151 18100h3502v252H3151z" class="BoundingBox"/><path fill="#BDBCBC" d="M3276 18100h1c-23 0-44 6-63 17s-35 27-46 46-17 40-17 63v-1 1c0 22 6 43 17 62s27 35 46 46 40 17 63 17h3250c22 0 43-6 62-17s35-27 46-46 17-40 17-62v-1 1c0-23-6-44-17-63s-27-35-46-46-40-17-62-17z"/></g></g></g></svg>