<svg xmlns="http://www.w3.org/2000/svg" xml:space="preserve" width="378.028" height="378.028" fill-rule="evenodd" stroke-linejoin="round" stroke-width="28.222" preserveAspectRatio="xMidYMid" version="1.2" viewBox="1002 9852 10002 10002"><g class="Page"><g class="com.sun.star.drawing.CustomShape"><path fill="none" d="M1002 9852h10002v10002H1002z" class="BoundingBox"/><path fill="#79909C" d="M11003 14853c0 877-231 1740-670 2500s-1070 1391-1830 1830-1623 670-2500 670c-878 0-1741-231-2501-670s-1391-1070-1830-1830-670-1623-670-2500c0-878 231-1741 670-2501s1070-1391 1830-1830 1623-670 2500-670c878 0 1741 231 2501 670s1391 1070 1830 1830 670 1623 670 2500z"/></g><g class="com.sun.star.drawing.CustomShape"><path fill="none" d="M2056 10938h7892v7829H2056z" class="BoundingBox"/><path fill="#FFD550" d="m2056 14852 1602 565v-1131zM3211 17619l1537-725-806-799zM6001 18766l570-1590H5432zM8792 17619l-731-1524-806 799zM9947 14852l-1602-566v1131zM8792 12084l-1537 725 806 799zM6002 10938l-570 1589h1139zM3211 12084l731 1524 806-799zM7975 14852c0 344-91 681-264 979-173 297-423 544-722 716-300 172-641 262-987 262s-687-90-986-262c-300-172-550-419-723-716-173-298-264-635-264-979s91-681 264-978c173-298 423-545 722-717 300-172 641-262 987-262s687 90 986 262c300 172 550 419 723 717 173 297 264 634 264 978"/></g><g class="Group"><g class="com.sun.star.drawing.CustomShape"><path fill="none" d="M1521 15638h6225v1963H1521z" class="BoundingBox"/><path fill="#FBFBFB" d="M2502 15638c-172 0-341 45-491 131-149 87-272 210-359 360-86 149-131 318-131 490s45 341 131 491c87 149 210 272 360 359 149 86 318 131 490 131h4262c172 0 341-45 490-131 150-87 273-210 360-359 86-150 131-319 131-491s-45-341-131-490c-87-150-210-273-360-360-149-86-318-131-490-131z"/></g><g class="com.sun.star.drawing.CustomShape"><path fill="none" d="M1887 15169h2566v1962H1887z" class="BoundingBox"/><path fill="#FBFBFB" d="M4452 16150c0 172-59 341-172 490-112 149-274 273-469 359s-416 131-641 131c-226 0-447-45-642-131s-357-210-469-359c-113-149-172-318-172-490 0-173 59-342 172-491 112-149 274-273 469-359s416-131 641-131c226 0 447 45 642 131s357 210 469 359c113 149 172 318 172 490z"/></g><g class="com.sun.star.drawing.CustomShape"><path fill="none" d="M4891 14776h2564v1963H4891z" class="BoundingBox"/><path fill="#FBFBFB" d="M7454 15757c0 172-59 341-172 491-112 149-274 272-469 359-195 86-416 131-640 131-225 0-446-45-641-131-195-87-357-210-469-359-113-150-172-319-172-491s59-341 172-490c112-150 274-273 469-360 195-86 416-131 640-131 225 0 446 45 641 131 195 87 357 210 469 360 113 149 172 318 172 490"/></g><g class="com.sun.star.drawing.CustomShape"><path fill="none" d="M3352 14070h2563v1963H3352z" class="BoundingBox"/><path fill="#FBFBFB" d="M5914 15051c0 172-59 341-172 491-112 149-274 272-468 359-195 86-416 131-641 131s-446-45-640-131c-195-87-357-210-469-359-113-150-172-319-172-491s59-341 172-490c112-150 274-273 468-360 195-86 416-131 641-131s446 45 640 131c195 87 357 210 469 360 113 149 172 318 172 490"/></g></g><g class="Group"><g class="com.sun.star.drawing.CustomShape"><path fill="none" d="M5195 16543h4752v1760H5195z" class="BoundingBox"/><path fill="#DCDCDB" d="M6074 16543h1c-155 0-307 41-440 118-134 77-245 188-322 322-77 133-118 285-118 440v-1 1c0 154 41 306 118 439 77 134 188 245 322 322 133 77 285 118 440 118l2991-1 1 1c154 0 306-41 439-118 134-77 245-188 322-322 77-133 118-285 118-439v-1 1c0-155-41-307-118-440-77-134-188-245-322-322-133-77-285-118-439-118z"/></g><g class="com.sun.star.drawing.CustomShape"><path fill="none" d="M5472 16122h1959v1758H5472z" class="BoundingBox"/><path fill="#DCDCDB" d="M7430 17001c0 154-45 305-131 439-86 133-210 244-358 321-149 77-318 118-490 118s-341-41-489-118c-149-77-273-188-359-321-86-134-131-285-131-439 0-155 45-306 131-440 86-133 210-244 358-321 149-77 318-118 490-118s341 41 489 118c149 77 273 188 359 321 86 134 131 285 131 440"/></g><g class="com.sun.star.drawing.CustomShape"><path fill="none" d="M7766 15770h1957v1760H7766z" class="BoundingBox"/><path fill="#DCDCDB" d="M9722 16650c0 154-45 306-131 439-86 134-209 245-358 322s-317 118-489 118-340-41-489-118-272-188-358-322c-86-133-131-285-131-439 0-155 45-307 131-440 86-134 209-245 358-322s317-118 489-118 340 41 489 118 272 188 358 322c86 133 131 285 131 440"/></g><g class="com.sun.star.drawing.CustomShape"><path fill="none" d="M6591 15137h1959v1760H6591z" class="BoundingBox"/><path fill="#DCDCDB" d="M8549 16017c0 154-45 306-131 439-86 134-210 245-358 322-149 77-318 118-490 118s-341-41-489-118c-149-77-273-188-359-322-86-133-131-285-131-439 0-155 45-307 131-440 86-134 210-245 359-322 148-77 317-118 489-118s341 41 489 118c149 77 273 188 359 322 86 133 131 285 131 440"/></g></g></g></svg>