<svg xmlns="http://www.w3.org/2000/svg" xml:space="preserve" width="378.028" height="378.028" fill-rule="evenodd" stroke-linejoin="round" stroke-width="28.222" preserveAspectRatio="xMidYMid" version="1.2" viewBox="1001 9851 10002 10002"><g class="Page"><g class="com.sun.star.drawing.CustomShape"><path fill="none" d="M1001 9851h10002v10002H1001z" class="BoundingBox"/><path fill="#051520" d="M11002 14852c0 877-231 1740-670 2500s-1070 1391-1830 1830-1623 670-2500 670c-878 0-1741-231-2501-670s-1391-1070-1830-1830-670-1623-670-2500c0-878 231-1741 670-2501s1070-1391 1830-1830 1623-670 2500-670c878 0 1741 231 2501 670s1391 1070 1830 1830 670 1623 670 2500z"/></g><g class="Group"><g class="com.sun.star.drawing.CustomShape"><path fill="none" d="M3244 12058h5184v5688H3244z" class="BoundingBox"/><path fill="#FFD550" d="M4987 12058c-444 967-696 2208 215 3509s2164 1490 3224 1404c-1652 1156-3784 997-4728-351-944-1349-364-3405 1289-4562"/></g><g class="com.sun.star.drawing.CustomShape"><path fill="none" d="M7533 12040h1092v1093H7533z" class="BoundingBox"/><path fill="#FFD550" d="m8078 12040-127 417h-418l339 260-127 415 333-254 333 254-127-415 340-260h-419z"/></g><g class="com.sun.star.drawing.CustomShape"><path fill="none" d="M7097 14440h1529v1529H7097z" class="BoundingBox"/><path fill="#FFD550" d="m7860 14440-178 584h-585l475 364-179 580 467-356 467 356-179-580 476-364h-586z"/></g><g class="com.sun.star.drawing.CustomShape"><path fill="none" d="M5137 11826h1528v1528H5137z" class="BoundingBox"/><path fill="#FFD550" d="m5900 11826-178 583h-585l475 364-179 580 467-355 467 355-179-580 476-364h-586z"/></g></g></g></svg>