<svg xmlns="http://www.w3.org/2000/svg" xml:space="preserve" width="378.028" height="378.028" fill-rule="evenodd" stroke-linejoin="round" stroke-width="28.222" preserveAspectRatio="xMidYMid" version="1.2" viewBox="1002 9852 10002 10002"><g class="Page"><g class="com.sun.star.drawing.CustomShape"><path fill="none" d="M1002 9852h10002v10002H1002z" class="BoundingBox"/><path fill="#79909C" d="M11003 14853c0 877-231 1740-670 2500s-1070 1391-1830 1830-1623 670-2500 670c-878 0-1741-231-2501-670s-1391-1070-1830-1830-670-1623-670-2500c0-878 231-1741 670-2501s1070-1391 1830-1830 1623-670 2500-670c878 0 1741 231 2501 670s1391 1070 1830 1830 670 1623 670 2500z"/></g><g class="com.sun.star.drawing.CustomShape"><path fill="none" d="M2056 10938h7892v7829H2056z" class="BoundingBox"/><path fill="#FFD550" d="m2056 14852 1602 565v-1131zM3211 17619l1537-725-806-799zM6001 18766l570-1590H5432zM8792 17619l-731-1524-806 799zM9947 14852l-1602-566v1131zM8792 12084l-1537 725 806 799zM6002 10938l-570 1589h1139zM3211 12084l731 1524 806-799zM7975 14852c0 344-91 681-264 979-173 297-423 544-722 716-300 172-641 262-987 262s-687-90-986-262c-300-172-550-419-723-716-173-298-264-635-264-979s91-681 264-978c173-298 423-545 722-717 300-172 641-262 987-262s687 90 986 262c300 172 550 419 723 717 173 297 264 634 264 978"/></g><g class="Group"><g class="com.sun.star.drawing.CustomShape"><path fill="none" d="M4624 13866h4627v1714H4624z" class="BoundingBox"/><path fill="#BDBCBC" d="M5480 13867c-150 0-298 40-428 115s-238 183-313 313-115 278-115 428 40 298 115 428 183 238 313 313 278 115 428 115h2914c150 0 298-40 428-115s238-183 313-313 115-278 115-428-40-298-115-428-183-238-313-313-278-115-428-115z"/></g><g class="com.sun.star.drawing.CustomShape"><path fill="none" d="M4895 13456h1907v1713H4895z" class="BoundingBox"/><path fill="#BDBCBC" d="M6801 14312c0 151-44 298-128 428-83 130-204 238-348 313-145 75-310 115-477 115s-332-40-476-115c-145-75-266-183-349-313-84-130-128-277-128-428 0-150 44-297 128-427 83-130 204-238 348-313 145-75 310-115 477-115s332 40 476 115c145 75 266 183 349 313 84 130 128 277 128 427"/></g><g class="com.sun.star.drawing.CustomShape"><path fill="none" d="M7128 13114h1905v1713H7128z" class="BoundingBox"/><path fill="#BDBCBC" d="M9032 13970c0 150-44 298-128 428-83 130-203 238-348 313s-309 115-476 115-331-40-476-115-265-183-348-313c-84-130-128-278-128-428s44-298 128-428c83-130 203-238 348-313s309-115 476-115 331 40 476 115 265 183 348 313c84 130 128 278 128 428"/></g><g class="com.sun.star.drawing.CustomShape"><path fill="none" d="M5984 12497h1907v1714H5984z" class="BoundingBox"/><path fill="#BDBCBC" d="M7890 13354c0 150-44 298-128 428-83 130-204 238-348 313-145 75-310 115-477 115s-332-40-476-115c-145-75-266-183-349-313-84-130-128-278-128-428s44-298 128-428c83-130 204-238 348-313 145-75 310-115 477-115s332 40 476 115c145 75 266 183 349 313 84 130 128 278 128 428"/></g></g><g class="Group"><g class="com.sun.star.drawing.CustomShape"><path fill="none" d="M1521 15638h6225v1963H1521z" class="BoundingBox"/><path fill="#FBFBFB" d="M2502 15638c-172 0-341 45-491 131-149 87-272 210-359 360-86 149-131 318-131 490s45 341 131 491c87 149 210 272 360 359 149 86 318 131 490 131h4262c172 0 341-45 490-131 150-87 273-210 360-359 86-150 131-319 131-491s-45-341-131-490c-87-150-210-273-360-360-149-86-318-131-490-131z"/></g><g class="com.sun.star.drawing.CustomShape"><path fill="none" d="M1887 15169h2566v1962H1887z" class="BoundingBox"/><path fill="#FBFBFB" d="M4452 16150c0 172-59 341-172 490-112 149-274 273-469 359s-416 131-641 131c-226 0-447-45-642-131s-357-210-469-359c-113-149-172-318-172-490 0-173 59-342 172-491 112-149 274-273 469-359s416-131 641-131c226 0 447 45 642 131s357 210 469 359c113 149 172 318 172 490z"/></g><g class="com.sun.star.drawing.CustomShape"><path fill="none" d="M4891 14776h2564v1963H4891z" class="BoundingBox"/><path fill="#FBFBFB" d="M7454 15757c0 172-59 341-172 491-112 149-274 272-469 359-195 86-416 131-640 131-225 0-446-45-641-131-195-87-357-210-469-359-113-150-172-319-172-491s59-341 172-490c112-150 274-273 469-360 195-86 416-131 640-131 225 0 446 45 641 131 195 87 357 210 469 360 113 149 172 318 172 490"/></g><g class="com.sun.star.drawing.CustomShape"><path fill="none" d="M3352 14070h2563v1963H3352z" class="BoundingBox"/><path fill="#FBFBFB" d="M5914 15051c0 172-59 341-172 491-112 149-274 272-468 359-195 86-416 131-641 131s-446-45-640-131c-195-87-357-210-469-359-113-150-172-319-172-491s59-341 172-490c112-150 274-273 468-360 195-86 416-131 641-131s446 45 640 131c195 87 357 210 469 360 113 149 172 318 172 490"/></g></g><g class="Group"><g class="com.sun.star.drawing.CustomShape"><path fill="none" d="M5195 16543h4752v1760H5195z" class="BoundingBox"/><path fill="#DCDCDB" d="M6074 16543h1c-155 0-307 41-440 118-134 77-245 188-322 322-77 133-118 285-118 440v-1 1c0 154 41 306 118 439 77 134 188 245 322 322 133 77 285 118 440 118l2991-1 1 1c154 0 306-41 439-118 134-77 245-188 322-322 77-133 118-285 118-439v-1 1c0-155-41-307-118-440-77-134-188-245-322-322-133-77-285-118-439-118z"/></g><g class="com.sun.star.drawing.CustomShape"><path fill="none" d="M5472 16122h1959v1758H5472z" class="BoundingBox"/><path fill="#DCDCDB" d="M7430 17001c0 154-45 305-131 439-86 133-210 244-358 321-149 77-318 118-490 118s-341-41-489-118c-149-77-273-188-359-321-86-134-131-285-131-439 0-155 45-306 131-440 86-133 210-244 358-321 149-77 318-118 490-118s341 41 489 118c149 77 273 188 359 321 86 134 131 285 131 440"/></g><g class="com.sun.star.drawing.CustomShape"><path fill="none" d="M7766 15770h1957v1760H7766z" class="BoundingBox"/><path fill="#DCDCDB" d="M9722 16650c0 154-45 306-131 439-86 134-209 245-358 322s-317 118-489 118-340-41-489-118-272-188-358-322c-86-133-131-285-131-439 0-155 45-307 131-440 86-134 209-245 358-322s317-118 489-118 340 41 489 118 272 188 358 322c86 133 131 285 131 440"/></g><g class="com.sun.star.drawing.CustomShape"><path fill="none" d="M6591 15137h1959v1760H6591z" class="BoundingBox"/><path fill="#DCDCDB" d="M8549 16017c0 154-45 306-131 439-86 134-210 245-358 322-149 77-318 118-490 118s-341-41-489-118c-149-77-273-188-359-322-86-133-131-285-131-439 0-155 45-307 131-440 86-134 210-245 359-322 148-77 317-118 489-118s341 41 489 118c149 77 273 188 359 322 86 133 131 285 131 440"/></g></g><g class="com.sun.star.drawing.ClosedBezierShape"><path fill="none" d="M3073 17093h2002v2003H3073z" class="BoundingBox"/><path fill="#FFF" d="M4073 17094c87 203 175 405 262 608 246-35 493-70 739-105-159 168-319 337-478 505 159 163 319 326 478 489-246-35-493-70-739-105-87 203-175 406-262 609-87-203-175-406-262-609l-738 105 477-489c-159-168-318-337-477-505l738 105c87-203 175-405 262-608"/></g><g class="com.sun.star.drawing.ClosedBezierShape"><path fill="none" d="M5803 17256h1450v1921H5803z" class="BoundingBox"/><path fill="#66C7F9" d="M6502 17272c-9 43-18 85-27 127-12 38-24 77-36 115-15 35-29 70-44 104-17 32-34 64-50 96-19 29-37 58-56 87-19 27-39 54-58 81-41 49-81 98-121 147-39 46-77 92-115 137-18 23-35 45-52 68-16 24-31 47-46 70l-39 72c-9 26-19 51-29 77-6 27-12 54-19 82-2 29-4 59-6 88 1 19 2 38 4 57 3 18 7 36 11 55 6 17 12 35 18 53 8 17 16 34 25 51 10 16 20 32 31 48 12 15 24 30 37 45 14 15 28 29 42 43 15 13 31 26 47 39l51 36c19 10 38 21 56 32l60 27 63 24 66 18c23 5 46 9 69 14 24 2 47 5 71 8 24 1 49 2 73 3 24-1 49-2 73-3 23-3 47-6 71-8 23-5 46-9 69-14 22-6 44-12 66-19 21-7 42-15 63-23l60-27c18-11 37-22 56-32l51-36c16-13 32-26 47-39l43-43 36-45c10-16 21-32 31-49 8-16 17-33 25-50 6-18 12-36 18-53 4-19 7-37 11-55 1-19 3-38 4-57-2-29-4-59-7-88-6-28-12-55-18-82-10-26-20-51-30-77-12-24-25-48-38-72-15-23-30-46-46-70-17-23-34-45-51-68-39-45-78-91-116-137-40-49-81-98-121-147-19-27-39-54-58-81-19-29-37-58-55-87l-51-96c-15-34-29-69-44-104-12-38-24-77-36-115-9-42-18-84-27-127v-2l-1-1c0-1 0-2-1-2 0-1-1-1-1-2l-1-1c-1-1-1-1-2-1 0-1-1-1-1-2-1 0-1 0-2-1-1 0-2-1-4-1-1-1-3-1-4-2-1 0-3 0-4-1h-10c-1 1-2 1-4 1-1 1-3 1-4 2-1 0-3 1-4 1-1 1-1 1-2 1 0 1-1 1-1 2-1 0-1 0-2 1l-1 1c0 1-1 1-1 2 0 0-1 1-1 2 0 0 0 1-1 1z"/></g></g></svg>